<mxfile host="app.diagrams.net" agent="Mozilla/5.0 (Windows NT 10.0; Win64; x64) AppleWebKit/537.36 (KHTML, like Gecko) Chrome/116.0.0.0 Safari/537.36" version="24.7.7">
  <diagram name="第 1 页" id="WCI1cchEblUm8JxYPo8x">
    <mxGraphModel dx="819" dy="1602" grid="1" gridSize="10" guides="1" tooltips="1" connect="1" arrows="1" fold="1" page="1" pageScale="1" pageWidth="827" pageHeight="1169" math="0" shadow="0">
      <root>
        <mxCell id="0" />
        <mxCell id="1" parent="0" />
        <mxCell id="MTvjtJ75Bb0OnX07eG9y-8" value="" style="edgeStyle=orthogonalEdgeStyle;rounded=0;orthogonalLoop=1;jettySize=auto;html=1;" edge="1" parent="1" source="MTvjtJ75Bb0OnX07eG9y-2" target="MTvjtJ75Bb0OnX07eG9y-7">
          <mxGeometry relative="1" as="geometry" />
        </mxCell>
        <mxCell id="MTvjtJ75Bb0OnX07eG9y-2" value="商业化召回" style="rounded=0;whiteSpace=wrap;html=1;" vertex="1" parent="1">
          <mxGeometry x="540" y="80" width="120" height="60" as="geometry" />
        </mxCell>
        <mxCell id="MTvjtJ75Bb0OnX07eG9y-6" value="" style="edgeStyle=orthogonalEdgeStyle;rounded=0;orthogonalLoop=1;jettySize=auto;html=1;" edge="1" parent="1" source="MTvjtJ75Bb0OnX07eG9y-3" target="MTvjtJ75Bb0OnX07eG9y-5">
          <mxGeometry relative="1" as="geometry" />
        </mxCell>
        <mxCell id="MTvjtJ75Bb0OnX07eG9y-3" value="自然预估" style="rounded=0;whiteSpace=wrap;html=1;" vertex="1" parent="1">
          <mxGeometry x="160" y="80" width="120" height="60" as="geometry" />
        </mxCell>
        <mxCell id="MTvjtJ75Bb0OnX07eG9y-5" value="" style="whiteSpace=wrap;html=1;rounded=0;" vertex="1" parent="1">
          <mxGeometry x="160" y="220" width="120" height="60" as="geometry" />
        </mxCell>
        <mxCell id="MTvjtJ75Bb0OnX07eG9y-7" value="" style="whiteSpace=wrap;html=1;rounded=0;" vertex="1" parent="1">
          <mxGeometry x="540" y="220" width="120" height="60" as="geometry" />
        </mxCell>
        <mxCell id="MTvjtJ75Bb0OnX07eG9y-9" value="自然召回？" style="rounded=0;whiteSpace=wrap;html=1;" vertex="1" parent="1">
          <mxGeometry x="170" y="-70" width="120" height="60" as="geometry" />
        </mxCell>
      </root>
    </mxGraphModel>
  </diagram>
</mxfile>
